<?xml version="1.0" encoding="UTF-8"?>
<svg xmlns="http://www.w3.org/2000/svg" xmlns:xlink="http://www.w3.org/1999/xlink" width="255px" height="17px" viewBox="0 0 255 17" version="1.1">
<g id="surface1">
<path style=" stroke:none;fill-rule:nonzero;fill:rgb(0%,0%,0%);fill-opacity:1;" d="M 126.582031 7.175781 C 124.730469 7.351562 124.015625 7.730469 124.910156 8.0625 C 125.308594 8.222656 126.246094 8.40625 127.082031 8.488281 L 127.558594 8.539062 L 128.617188 8.386719 C 131.1875 8.019531 131.085938 7.421875 128.398438 7.175781 C 127.621094 7.101562 127.339844 7.105469 126.582031 7.175781 Z M 128.375 7.226562 C 128.65625 7.257812 129.132812 7.339844 129.453125 7.40625 C 129.929688 7.515625 129.992188 7.558594 129.992188 7.757812 C 129.992188 7.949219 129.910156 8.003906 129.453125 8.128906 C 129.152344 8.207031 128.59375 8.316406 128.195312 8.367188 L 127.5 8.457031 L 126.804688 8.367188 C 126.40625 8.316406 125.847656 8.207031 125.546875 8.128906 C 125.089844 8.003906 125.011719 7.949219 125.011719 7.757812 C 125.011719 7.558594 125.070312 7.515625 125.546875 7.40625 C 126.164062 7.269531 126.960938 7.171875 127.5 7.171875 C 127.699219 7.171875 128.078125 7.195312 128.375 7.226562 Z M 128.375 7.226562 "/>
<path style=" stroke:none;fill-rule:nonzero;fill:rgb(0%,0%,0%);fill-opacity:1;" d="M 98.394531 7.941406 C 96.144531 7.996094 93.832031 8.246094 92.777344 8.546875 C 92.179688 8.710938 92.140625 8.746094 92.140625 9.003906 C 92.140625 9.25 92.199219 9.300781 92.65625 9.429688 C 93.375 9.632812 94.070312 9.734375 95.386719 9.820312 C 96.363281 9.882812 96.761719 9.894531 98.214844 9.894531 C 100.347656 9.894531 101.480469 9.839844 102.558594 9.683594 C 103.894531 9.492188 104.132812 9.265625 103.273438 9.035156 C 102.558594 8.84375 101.5625 8.757812 99.929688 8.746094 C 98.953125 8.738281 98.535156 8.746094 97.816406 8.796875 C 96.761719 8.871094 96.144531 8.992188 96.34375 9.097656 L 96.480469 9.167969 L 97.039062 9.078125 C 97.757812 8.960938 99.191406 8.910156 100.464844 8.953125 C 102.65625 9.035156 103.496094 9.425781 101.941406 9.65625 C 100.964844 9.808594 99.949219 9.867188 98.195312 9.867188 C 96.859375 9.867188 96.582031 9.855469 95.703125 9.789062 C 93.890625 9.636719 92.894531 9.308594 93.074219 8.917969 C 93.355469 8.367188 97.160156 7.964844 101.261719 8.050781 C 103.792969 8.105469 105.84375 8.238281 109.75 8.605469 C 113.875 8.988281 116.703125 9.1875 120.328125 9.34375 C 125.6875 9.578125 129.332031 9.578125 134.671875 9.34375 C 138.316406 9.183594 141.148438 8.984375 145.25 8.605469 C 149.15625 8.238281 151.207031 8.105469 153.738281 8.050781 C 157.839844 7.964844 161.644531 8.367188 161.925781 8.917969 C 162.105469 9.308594 161.109375 9.636719 159.296875 9.789062 C 158.417969 9.855469 158.140625 9.867188 156.804688 9.867188 C 155.050781 9.867188 154.035156 9.808594 153.058594 9.65625 C 151.507812 9.425781 152.34375 9.035156 154.535156 8.953125 C 155.808594 8.910156 157.242188 8.960938 157.960938 9.078125 L 158.519531 9.167969 L 158.65625 9.097656 C 158.855469 8.992188 158.238281 8.871094 157.183594 8.796875 C 156.464844 8.746094 156.046875 8.738281 155.070312 8.746094 C 153.4375 8.757812 152.441406 8.84375 151.726562 9.035156 C 150.867188 9.265625 151.109375 9.492188 152.441406 9.683594 C 153.519531 9.839844 154.652344 9.894531 156.785156 9.894531 C 159.574219 9.894531 161.1875 9.757812 162.34375 9.429688 C 162.800781 9.300781 162.863281 9.25 162.863281 9.003906 C 162.863281 8.746094 162.820312 8.710938 162.222656 8.546875 C 161.425781 8.320312 160.03125 8.132812 158.359375 8.027344 C 154.851562 7.804688 150.867188 7.941406 145.488281 8.464844 C 139.972656 9.003906 135.765625 9.277344 130.789062 9.417969 C 126.761719 9.527344 122.320312 9.421875 117.042969 9.085938 C 114.351562 8.914062 112.898438 8.792969 109.511719 8.464844 C 105.007812 8.027344 101.480469 7.859375 98.394531 7.941406 Z M 98.394531 7.941406 "/>
<path style=" stroke:none;fill-rule:nonzero;fill:rgb(0%,0%,0%);fill-opacity:1;" d="M 115.566406 8.050781 C 115.089844 8.0625 114.671875 8.078125 114.628906 8.082031 C 114.589844 8.089844 115.027344 8.136719 115.625 8.191406 C 116.882812 8.304688 118.117188 8.480469 119.890625 8.785156 C 122.023438 9.152344 124.253906 9.304688 127.5 9.304688 C 130.886719 9.304688 132.917969 9.15625 135.449219 8.726562 C 137.164062 8.4375 138.296875 8.285156 139.652344 8.164062 C 140.46875 8.09375 140.46875 8.089844 140.011719 8.066406 C 139.214844 8.027344 136.40625 8.015625 135.191406 8.046875 C 133.636719 8.082031 132.71875 8.148438 130.789062 8.34375 C 129.910156 8.429688 128.816406 8.527344 128.355469 8.5625 L 127.5 8.617188 L 126.664062 8.5625 C 126.183594 8.527344 125.089844 8.429688 124.214844 8.34375 C 123.335938 8.253906 122.261719 8.15625 121.824219 8.128906 C 120.289062 8.03125 117.640625 7.996094 115.566406 8.050781 Z M 118.792969 8.074219 C 120.527344 8.113281 121.824219 8.207031 123.792969 8.429688 C 124.769531 8.546875 126.007812 8.664062 126.523438 8.703125 L 127.5 8.765625 L 128.476562 8.703125 C 128.992188 8.664062 130.230469 8.546875 131.207031 8.429688 C 133.179688 8.207031 134.472656 8.113281 136.207031 8.074219 C 137.242188 8.050781 139.3125 8.0625 139.710938 8.09375 C 139.8125 8.101562 139.414062 8.148438 138.816406 8.203125 C 138.238281 8.253906 136.644531 8.449219 135.269531 8.636719 C 133.894531 8.820312 132.421875 8.996094 131.984375 9.027344 C 129.132812 9.21875 125.867188 9.21875 123.019531 9.027344 C 122.578125 8.996094 121.105469 8.820312 119.730469 8.636719 C 118.355469 8.449219 116.761719 8.253906 116.164062 8.199219 C 115.050781 8.101562 115.050781 8.089844 116.246094 8.066406 C 117.339844 8.046875 117.640625 8.046875 118.792969 8.074219 Z M 118.792969 8.074219 "/>
<path style=" stroke:none;fill-rule:nonzero;fill:rgb(0%,0%,0%);fill-opacity:1;" d="M 88.53125 8.84375 C 87.558594 8.898438 87.21875 9.050781 87.757812 9.1875 C 88.332031 9.335938 90.246094 9.34375 90.824219 9.195312 C 91.660156 8.984375 90.167969 8.757812 88.53125 8.84375 Z M 89.847656 8.972656 C 90.207031 9.011719 90.265625 9.039062 90.167969 9.09375 C 90.007812 9.183594 89.191406 9.214844 88.652344 9.152344 C 88.15625 9.089844 88.15625 9.042969 88.652344 8.976562 C 89.152344 8.910156 89.289062 8.910156 89.847656 8.972656 Z M 89.847656 8.972656 "/>
<path style=" stroke:none;fill-rule:nonzero;fill:rgb(0%,0%,0%);fill-opacity:1;" d="M 164.59375 8.886719 C 163.519531 9.003906 163.757812 9.214844 165.054688 9.285156 C 166.289062 9.355469 167.542969 9.234375 167.542969 9.046875 C 167.542969 8.953125 166.765625 8.84375 165.929688 8.828125 C 165.371094 8.816406 165.113281 8.828125 164.59375 8.886719 Z M 166.347656 8.976562 C 166.847656 9.042969 166.847656 9.089844 166.347656 9.152344 C 165.808594 9.214844 164.992188 9.183594 164.832031 9.09375 C 164.734375 9.039062 164.792969 9.011719 165.152344 8.972656 C 165.710938 8.910156 165.851562 8.910156 166.347656 8.976562 Z M 166.347656 8.976562 "/>
<path style=" stroke:none;fill-rule:nonzero;fill:rgb(0%,0%,0%);fill-opacity:1;" d="M 0.320312 8.984375 C -0.160156 9.035156 -0.0195312 9.113281 0.597656 9.15625 C 0.996094 9.183594 9.621094 9.1875 43.390625 9.183594 C 85.007812 9.175781 85.703125 9.175781 85.984375 9.125 C 86.339844 9.058594 86.339844 9.042969 85.941406 8.992188 C 85.664062 8.957031 81.5 8.953125 43.152344 8.953125 C 8.347656 8.953125 0.617188 8.957031 0.320312 8.984375 Z M 0.320312 8.984375 "/>
<path style=" stroke:none;fill-rule:nonzero;fill:rgb(0%,0%,0%);fill-opacity:1;" d="M 169.058594 8.992188 C 168.660156 9.042969 168.660156 9.058594 169.015625 9.125 C 169.296875 9.175781 169.992188 9.175781 211.609375 9.183594 C 256.355469 9.191406 254.800781 9.191406 254.960938 9.070312 C 255.160156 8.945312 257.011719 8.953125 211.847656 8.953125 C 173.5 8.953125 169.335938 8.957031 169.058594 8.992188 Z M 169.058594 8.992188 "/>
<path style=" stroke:none;fill-rule:nonzero;fill:rgb(0%,0%,0%);fill-opacity:1;" d="M 109.410156 9.167969 C 108.375 9.21875 106.582031 9.417969 106.582031 9.476562 C 106.582031 9.492188 106.800781 9.542969 107.058594 9.582031 C 107.519531 9.652344 107.617188 9.65625 109.3125 9.652344 C 110.804688 9.652344 111.441406 9.632812 113.65625 9.542969 C 115.089844 9.480469 116.742188 9.421875 117.339844 9.414062 C 119.09375 9.386719 119.152344 9.367188 117.71875 9.277344 C 114.988281 9.101562 111.542969 9.058594 109.410156 9.167969 Z M 116.742188 9.285156 L 117.839844 9.332031 L 116.246094 9.363281 C 115.367188 9.382812 113.714844 9.425781 112.558594 9.46875 C 110.347656 9.542969 108.316406 9.566406 107.9375 9.515625 C 107.5 9.457031 108.714844 9.332031 110.46875 9.25 C 111.5625 9.203125 115.308594 9.222656 116.742188 9.285156 Z M 116.742188 9.285156 "/>
<path style=" stroke:none;fill-rule:nonzero;fill:rgb(0%,0%,0%);fill-opacity:1;" d="M 139.53125 9.160156 C 138.855469 9.1875 137.78125 9.242188 137.164062 9.285156 C 135.867188 9.367188 135.945312 9.386719 137.660156 9.414062 C 138.257812 9.421875 139.929688 9.480469 141.347656 9.542969 C 143.558594 9.632812 144.195312 9.652344 145.6875 9.652344 C 147.382812 9.65625 147.480469 9.652344 147.941406 9.582031 C 148.199219 9.542969 148.417969 9.492188 148.417969 9.476562 C 148.417969 9.414062 146.625 9.21875 145.550781 9.167969 C 144.113281 9.09375 141.324219 9.09375 139.53125 9.160156 Z M 145.371094 9.292969 C 146.605469 9.367188 147.402344 9.46875 147.0625 9.515625 C 146.664062 9.566406 144.632812 9.542969 142.121094 9.457031 C 140.808594 9.414062 139.15625 9.367188 138.476562 9.359375 C 137.621094 9.347656 137.320312 9.335938 137.519531 9.316406 C 139.054688 9.203125 143.597656 9.191406 145.371094 9.292969 Z M 145.371094 9.292969 "/>
</g>
</svg>
